<mxfile modified="2021-01-24T21:20:22.340Z" host="app.diagrams.net" agent="5.0 (Windows NT 10.0; Win64; x64) AppleWebKit/537.36 (KHTML, like Gecko) Chrome/87.0.4280.141 Safari/537.36" etag="LfXm3daYe_sDX8Ml6DoE" version="14.2.7" type="github">
  <diagram id="C2fSY1v2SiZeoUbDoYyL" name="Page-1">
    <mxGraphModel dx="3156" dy="776" grid="0" gridSize="10" guides="1" tooltips="1" connect="1" arrows="1" fold="1" page="1" pageScale="1" pageWidth="1169" pageHeight="827" math="0" shadow="0">
      <root>
        <mxCell id="0" />
        <mxCell id="1" parent="0" />
        <mxCell id="Kp5ftzpki0hWg8qFIfPd-80" style="edgeStyle=orthogonalEdgeStyle;rounded=0;orthogonalLoop=1;jettySize=auto;html=1;entryX=0.561;entryY=0.002;entryDx=0;entryDy=0;entryPerimeter=0;startArrow=none;startFill=0;endArrow=classic;endFill=1;targetPerimeterSpacing=3;dashed=1;shape=flexArrow;fillColor=#a20025;strokeColor=#6F0000;" edge="1" parent="1" source="Kp5ftzpki0hWg8qFIfPd-61" target="Kp5ftzpki0hWg8qFIfPd-29">
          <mxGeometry relative="1" as="geometry" />
        </mxCell>
        <mxCell id="Kp5ftzpki0hWg8qFIfPd-61" value="" style="shape=mxgraph.gcp2.doubleRect;strokeColor=#10739e;shadow=1;strokeWidth=1;fillColor=#b1ddf0;" vertex="1" parent="1">
          <mxGeometry x="-22" y="110" width="1590" height="100" as="geometry" />
        </mxCell>
        <mxCell id="Kp5ftzpki0hWg8qFIfPd-62" value="&lt;font color=&quot;#000000&quot;&gt;Name&lt;/font&gt;&lt;br&gt;Project Manager&lt;hr&gt;" style="dashed=0;connectable=0;html=1;fillColor=#5184F3;strokeColor=none;shape=mxgraph.gcp2.cloud_bigtable;part=1;labelPosition=right;verticalLabelPosition=middle;align=left;verticalAlign=top;spacingLeft=5;fontColor=#999999;fontSize=12;spacingTop=-8;" vertex="1" parent="Kp5ftzpki0hWg8qFIfPd-61">
          <mxGeometry width="44" height="39" relative="1" as="geometry">
            <mxPoint x="5" y="7" as="offset" />
          </mxGeometry>
        </mxCell>
        <mxCell id="Kp5ftzpki0hWg8qFIfPd-13" value="Pre Project" style="shape=step;perimeter=stepPerimeter;whiteSpace=wrap;html=1;fixedSize=1;" vertex="1" parent="Kp5ftzpki0hWg8qFIfPd-61">
          <mxGeometry x="130" y="10" width="120" height="80" as="geometry" />
        </mxCell>
        <mxCell id="Kp5ftzpki0hWg8qFIfPd-14" value="Initiation Stage" style="shape=step;perimeter=stepPerimeter;whiteSpace=wrap;html=1;fixedSize=1;" vertex="1" parent="Kp5ftzpki0hWg8qFIfPd-61">
          <mxGeometry x="240" y="10" width="120" height="80" as="geometry" />
        </mxCell>
        <mxCell id="Kp5ftzpki0hWg8qFIfPd-19" value="Delivery&amp;nbsp;" style="shape=step;perimeter=stepPerimeter;whiteSpace=wrap;html=1;fixedSize=1;" vertex="1" parent="Kp5ftzpki0hWg8qFIfPd-61">
          <mxGeometry x="352" y="10" width="1008" height="80" as="geometry" />
        </mxCell>
        <mxCell id="Kp5ftzpki0hWg8qFIfPd-79" style="edgeStyle=orthogonalEdgeStyle;rounded=0;orthogonalLoop=1;jettySize=auto;html=1;startArrow=none;startFill=0;endArrow=classic;endFill=1;targetPerimeterSpacing=3;" edge="1" parent="1" source="Kp5ftzpki0hWg8qFIfPd-39">
          <mxGeometry relative="1" as="geometry">
            <mxPoint x="1180" y="480" as="targetPoint" />
          </mxGeometry>
        </mxCell>
        <mxCell id="Kp5ftzpki0hWg8qFIfPd-39" value="" style="shape=mxgraph.gcp2.doubleRect;strokeColor=#ae4132;shadow=1;strokeWidth=1;fillColor=#fad9d5;" vertex="1" parent="1">
          <mxGeometry x="910" y="270" width="148" height="419" as="geometry" />
        </mxCell>
        <mxCell id="Kp5ftzpki0hWg8qFIfPd-40" value="&lt;font color=&quot;#000000&quot;&gt;Name&lt;/font&gt;&lt;br&gt;Scrum Master&lt;br&gt;&lt;hr&gt;&lt;span style=&quot;font-size: 11px&quot;&gt;Umesh Joshi&lt;/span&gt;" style="dashed=0;connectable=0;html=1;fillColor=#5184F3;strokeColor=none;shape=mxgraph.gcp2.cloud_bigtable;part=1;labelPosition=right;verticalLabelPosition=middle;align=left;verticalAlign=top;spacingLeft=5;fontColor=#999999;fontSize=12;spacingTop=-8;" vertex="1" parent="Kp5ftzpki0hWg8qFIfPd-39">
          <mxGeometry width="44" height="39" relative="1" as="geometry">
            <mxPoint x="5" y="7" as="offset" />
          </mxGeometry>
        </mxCell>
        <mxCell id="Kp5ftzpki0hWg8qFIfPd-38" value="24 Hrs" style="shape=tapeData;whiteSpace=wrap;html=1;perimeter=ellipsePerimeter;" vertex="1" parent="Kp5ftzpki0hWg8qFIfPd-39">
          <mxGeometry x="34" y="70" width="80" height="80" as="geometry" />
        </mxCell>
        <mxCell id="Kp5ftzpki0hWg8qFIfPd-47" value="Triage" style="rhombus;whiteSpace=wrap;html=1;" vertex="1" parent="Kp5ftzpki0hWg8qFIfPd-39">
          <mxGeometry x="34" y="290" width="80" height="80" as="geometry" />
        </mxCell>
        <mxCell id="Kp5ftzpki0hWg8qFIfPd-48" value="Daily Scrum" style="rounded=0;whiteSpace=wrap;html=1;" vertex="1" parent="Kp5ftzpki0hWg8qFIfPd-39">
          <mxGeometry x="14" y="179.5" width="120" height="60" as="geometry" />
        </mxCell>
        <mxCell id="Kp5ftzpki0hWg8qFIfPd-77" style="edgeStyle=orthogonalEdgeStyle;rounded=0;orthogonalLoop=1;jettySize=auto;html=1;startArrow=none;startFill=0;endArrow=classic;endFill=1;targetPerimeterSpacing=3;" edge="1" parent="1" source="Kp5ftzpki0hWg8qFIfPd-29">
          <mxGeometry relative="1" as="geometry">
            <mxPoint x="600" y="479.5" as="targetPoint" />
          </mxGeometry>
        </mxCell>
        <mxCell id="Kp5ftzpki0hWg8qFIfPd-29" value="" style="shape=mxgraph.gcp2.doubleRect;strokeColor=#b46504;shadow=1;strokeWidth=1;fillColor=#fad7ac;" vertex="1" parent="1">
          <mxGeometry x="330" y="270" width="148" height="419" as="geometry" />
        </mxCell>
        <mxCell id="Kp5ftzpki0hWg8qFIfPd-30" value="&lt;font color=&quot;#000000&quot;&gt;Name&lt;/font&gt;&lt;br&gt;Product Owner&lt;hr&gt;&lt;span style=&quot;font-size: 11px&quot;&gt;Milly Thomson&lt;/span&gt;" style="dashed=0;connectable=0;html=1;fillColor=#5184F3;strokeColor=none;shape=mxgraph.gcp2.cloud_bigtable;part=1;labelPosition=right;verticalLabelPosition=middle;align=left;verticalAlign=top;spacingLeft=5;fontColor=#999999;fontSize=12;spacingTop=-8;" vertex="1" parent="Kp5ftzpki0hWg8qFIfPd-29">
          <mxGeometry width="44" height="39" relative="1" as="geometry">
            <mxPoint x="5" y="7" as="offset" />
          </mxGeometry>
        </mxCell>
        <mxCell id="Kp5ftzpki0hWg8qFIfPd-11" value="Product Backlog" style="shape=document;whiteSpace=wrap;html=1;boundedLbl=1;" vertex="1" parent="Kp5ftzpki0hWg8qFIfPd-29">
          <mxGeometry x="21" y="300" width="106" height="75.48" as="geometry" />
        </mxCell>
        <mxCell id="Kp5ftzpki0hWg8qFIfPd-12" value="User Stories" style="shape=document;whiteSpace=wrap;html=1;boundedLbl=1;" vertex="1" parent="Kp5ftzpki0hWg8qFIfPd-29">
          <mxGeometry x="21" y="190" width="106" height="81.58" as="geometry" />
        </mxCell>
        <mxCell id="Kp5ftzpki0hWg8qFIfPd-10" value="Vision" style="shape=process;whiteSpace=wrap;html=1;backgroundOutline=1;" vertex="1" parent="Kp5ftzpki0hWg8qFIfPd-29">
          <mxGeometry x="14" y="77.5" width="116" height="72.5" as="geometry" />
        </mxCell>
        <mxCell id="Kp5ftzpki0hWg8qFIfPd-17" value="Change control" style="shape=step;perimeter=stepPerimeter;whiteSpace=wrap;html=1;fixedSize=1;" vertex="1" parent="1">
          <mxGeometry x="1328" y="120" width="120" height="80" as="geometry" />
        </mxCell>
        <mxCell id="Kp5ftzpki0hWg8qFIfPd-20" value="&lt;span&gt;Directing and Managing&amp;nbsp;&lt;/span&gt;" style="rounded=1;whiteSpace=wrap;html=1;fillColor=#60a917;strokeColor=#2D7600;fontColor=#ffffff;" vertex="1" parent="1">
          <mxGeometry x="-10" y="10" width="341" height="20" as="geometry" />
        </mxCell>
        <mxCell id="Kp5ftzpki0hWg8qFIfPd-21" value="Controlling" style="rounded=1;whiteSpace=wrap;html=1;fillColor=#60a917;strokeColor=#2D7600;fontColor=#ffffff;" vertex="1" parent="1">
          <mxGeometry x="360" y="34" width="1090" height="20" as="geometry" />
        </mxCell>
        <mxCell id="Kp5ftzpki0hWg8qFIfPd-22" value="Closing" style="rounded=1;whiteSpace=wrap;html=1;fillColor=#60a917;strokeColor=#2D7600;fontColor=#ffffff;" vertex="1" parent="1">
          <mxGeometry x="1448" y="70" width="120" height="20" as="geometry" />
        </mxCell>
        <mxCell id="Kp5ftzpki0hWg8qFIfPd-24" value="Lesson learned /Training" style="shape=step;perimeter=stepPerimeter;whiteSpace=wrap;html=1;fixedSize=1;" vertex="1" parent="1">
          <mxGeometry x="1438" y="120" width="120" height="80" as="geometry" />
        </mxCell>
        <mxCell id="Kp5ftzpki0hWg8qFIfPd-26" value="" style="aspect=fixed;html=1;points=[];align=center;image;fontSize=12;image=img/lib/azure2/general/Backlog.svg;" vertex="1" parent="1">
          <mxGeometry x="510" y="560" width="68" height="60" as="geometry" />
        </mxCell>
        <mxCell id="Kp5ftzpki0hWg8qFIfPd-69" style="edgeStyle=orthogonalEdgeStyle;rounded=0;orthogonalLoop=1;jettySize=auto;html=1;entryX=0;entryY=0.5;entryDx=0;entryDy=0;targetPerimeterSpacing=3;" edge="1" parent="1" source="Kp5ftzpki0hWg8qFIfPd-31" target="Kp5ftzpki0hWg8qFIfPd-39">
          <mxGeometry relative="1" as="geometry" />
        </mxCell>
        <mxCell id="Kp5ftzpki0hWg8qFIfPd-31" value="" style="shape=mxgraph.gcp2.doubleRect;strokeColor=#ae4132;shadow=1;strokeWidth=1;fillColor=#fad9d5;" vertex="1" parent="1">
          <mxGeometry x="610" y="270" width="148" height="419" as="geometry" />
        </mxCell>
        <mxCell id="Kp5ftzpki0hWg8qFIfPd-32" value="&lt;font color=&quot;#000000&quot;&gt;Name&lt;/font&gt;&lt;br&gt;Scrum Master&lt;br&gt;&lt;hr&gt;&lt;span style=&quot;font-size: 11px&quot;&gt;Umesh Joshi&lt;/span&gt;" style="dashed=0;connectable=0;html=1;fillColor=#5184F3;strokeColor=none;shape=mxgraph.gcp2.cloud_bigtable;part=1;labelPosition=right;verticalLabelPosition=middle;align=left;verticalAlign=top;spacingLeft=5;fontColor=#999999;fontSize=12;spacingTop=-8;" vertex="1" parent="Kp5ftzpki0hWg8qFIfPd-31">
          <mxGeometry width="44" height="39" relative="1" as="geometry">
            <mxPoint x="5" y="7" as="offset" />
          </mxGeometry>
        </mxCell>
        <mxCell id="Kp5ftzpki0hWg8qFIfPd-33" value="Capacity Planning" style="shape=document;whiteSpace=wrap;html=1;boundedLbl=1;" vertex="1" parent="Kp5ftzpki0hWg8qFIfPd-31">
          <mxGeometry x="21" y="300" width="106" height="75.48" as="geometry" />
        </mxCell>
        <mxCell id="Kp5ftzpki0hWg8qFIfPd-34" value="Sprint Backlog" style="shape=document;whiteSpace=wrap;html=1;boundedLbl=1;" vertex="1" parent="Kp5ftzpki0hWg8qFIfPd-31">
          <mxGeometry x="21" y="190" width="106" height="81.58" as="geometry" />
        </mxCell>
        <mxCell id="Kp5ftzpki0hWg8qFIfPd-35" value="Sprint Planning" style="shape=process;whiteSpace=wrap;html=1;backgroundOutline=1;" vertex="1" parent="Kp5ftzpki0hWg8qFIfPd-31">
          <mxGeometry x="14" y="77.5" width="116" height="72.5" as="geometry" />
        </mxCell>
        <mxCell id="Kp5ftzpki0hWg8qFIfPd-44" value="" style="shape=image;html=1;verticalAlign=top;verticalLabelPosition=bottom;labelBackgroundColor=#ffffff;imageAspect=0;aspect=fixed;image=https://cdn0.iconfinder.com/data/icons/play-ground/32/13_game_sport_olympic_race_realy_sprint_award-128.png" vertex="1" parent="1">
          <mxGeometry x="786" y="550" width="100" height="100" as="geometry" />
        </mxCell>
        <mxCell id="Kp5ftzpki0hWg8qFIfPd-81" style="edgeStyle=orthogonalEdgeStyle;rounded=0;orthogonalLoop=1;jettySize=auto;html=1;startArrow=none;startFill=0;endArrow=classic;endFill=1;targetPerimeterSpacing=3;dashed=1;shape=flexArrow;fillColor=#a20025;strokeColor=#6F0000;" edge="1" parent="1" source="Kp5ftzpki0hWg8qFIfPd-49" target="Kp5ftzpki0hWg8qFIfPd-19">
          <mxGeometry relative="1" as="geometry" />
        </mxCell>
        <mxCell id="Kp5ftzpki0hWg8qFIfPd-49" value="" style="shape=mxgraph.gcp2.doubleRect;strokeColor=#ae4132;shadow=1;strokeWidth=1;fillColor=#fad9d5;" vertex="1" parent="1">
          <mxGeometry x="1188" y="270" width="148" height="419" as="geometry" />
        </mxCell>
        <mxCell id="Kp5ftzpki0hWg8qFIfPd-50" value="&lt;font color=&quot;#000000&quot;&gt;Name&lt;/font&gt;&lt;br&gt;Scrum Master&lt;br&gt;&lt;hr&gt;&lt;span style=&quot;font-size: 11px&quot;&gt;Umesh Joshi&lt;/span&gt;" style="dashed=0;connectable=0;html=1;fillColor=#5184F3;strokeColor=none;shape=mxgraph.gcp2.cloud_bigtable;part=1;labelPosition=right;verticalLabelPosition=middle;align=left;verticalAlign=top;spacingLeft=5;fontColor=#999999;fontSize=12;spacingTop=-8;" vertex="1" parent="Kp5ftzpki0hWg8qFIfPd-49">
          <mxGeometry width="44" height="39" relative="1" as="geometry">
            <mxPoint x="5" y="7" as="offset" />
          </mxGeometry>
        </mxCell>
        <mxCell id="Kp5ftzpki0hWg8qFIfPd-53" value="Sprint Review" style="rounded=0;whiteSpace=wrap;html=1;" vertex="1" parent="Kp5ftzpki0hWg8qFIfPd-49">
          <mxGeometry x="14" y="80" width="120" height="60" as="geometry" />
        </mxCell>
        <mxCell id="Kp5ftzpki0hWg8qFIfPd-55" value="Sprint Retrospective" style="rounded=0;whiteSpace=wrap;html=1;" vertex="1" parent="Kp5ftzpki0hWg8qFIfPd-49">
          <mxGeometry x="14" y="188" width="120" height="60" as="geometry" />
        </mxCell>
        <mxCell id="Kp5ftzpki0hWg8qFIfPd-82" value="KPI / Reports" style="rounded=0;whiteSpace=wrap;html=1;" vertex="1" parent="Kp5ftzpki0hWg8qFIfPd-49">
          <mxGeometry x="14" y="303" width="120" height="60" as="geometry" />
        </mxCell>
        <mxCell id="Kp5ftzpki0hWg8qFIfPd-54" value="Product Increment" style="ellipse;shape=cloud;whiteSpace=wrap;html=1;" vertex="1" parent="1">
          <mxGeometry x="1058" y="550" width="120" height="80" as="geometry" />
        </mxCell>
        <mxCell id="Kp5ftzpki0hWg8qFIfPd-56" value="Select Product Backlog" style="text;html=1;strokeColor=none;fillColor=none;align=center;verticalAlign=middle;whiteSpace=wrap;rounded=0;" vertex="1" parent="1">
          <mxGeometry x="510" y="520" width="90" height="20" as="geometry" />
        </mxCell>
        <mxCell id="Kp5ftzpki0hWg8qFIfPd-57" value="2-4 Weeks Sprint&lt;br&gt;Scrum Team&amp;nbsp;" style="text;html=1;strokeColor=none;fillColor=none;align=center;verticalAlign=middle;whiteSpace=wrap;rounded=0;" vertex="1" parent="1">
          <mxGeometry x="790" y="520" width="100" height="20" as="geometry" />
        </mxCell>
        <mxCell id="Kp5ftzpki0hWg8qFIfPd-58" value="New Functionality" style="text;html=1;strokeColor=none;fillColor=none;align=center;verticalAlign=middle;whiteSpace=wrap;rounded=0;" vertex="1" parent="1">
          <mxGeometry x="1069" y="520" width="100" height="20" as="geometry" />
        </mxCell>
      </root>
    </mxGraphModel>
  </diagram>
</mxfile>
